<svg xmlns="http://www.w3.org/2000/svg" viewBox="0 0 100 100">
  <defs>
    <linearGradient id="fv-hb" x1="0" y1="0" x2="1" y2="1">
      <stop offset="0%" stop-color="#3d5afe"/>
      <stop offset="100%" stop-color="#7c4dff"/>
    </linearGradient>
  </defs>
  <!-- Inner hex light fill -->
  <polygon points="50,18 77.7,34 77.7,66 50,82 22.3,66 22.3,34" fill="#e0e8ff"/>
  <!-- Hub lines -->
  <line x1="50" y1="50" x2="50"   y2="18"  stroke="#5068d0" stroke-width="1.5" stroke-linecap="round"/>
  <line x1="50" y1="50" x2="77.7" y2="34"  stroke="#5068d0" stroke-width="1.5" stroke-linecap="round"/>
  <line x1="50" y1="50" x2="77.7" y2="66"  stroke="#5068d0" stroke-width="1.5" stroke-linecap="round"/>
  <line x1="50" y1="50" x2="50"   y2="82"  stroke="#5068d0" stroke-width="1.5" stroke-linecap="round"/>
  <line x1="50" y1="50" x2="22.3" y2="66"  stroke="#5068d0" stroke-width="1.5" stroke-linecap="round"/>
  <line x1="50" y1="50" x2="22.3" y2="34"  stroke="#5068d0" stroke-width="1.5" stroke-linecap="round"/>
  <!-- Corner nodes -->
  <circle cx="50"   cy="18" r="4" fill="#2a3db5"/>
  <circle cx="77.7" cy="34" r="4" fill="#2a3db5"/>
  <circle cx="77.7" cy="66" r="4" fill="#2a3db5"/>
  <circle cx="50"   cy="82" r="4" fill="#2a3db5"/>
  <circle cx="22.3" cy="66" r="4" fill="#2a3db5"/>
  <circle cx="22.3" cy="34" r="4" fill="#2a3db5"/>
  <!-- Center green hub -->
  <circle cx="50" cy="50" r="10" fill="#1ec86e"/>
  <!-- Outer hexagon border -->
  <polygon points="50,5 89,27.5 89,72.5 50,95 11,72.5 11,27.5"
           fill="none" stroke="url(#fv-hb)" stroke-width="4" stroke-linejoin="round"/>
</svg>
